<svg aria-hidden="true" style="position: absolute; width: 0; height: 0; overflow: hidden;" version="1.1" xmlns="http://www.w3.org/2000/svg" xmlns:xlink="http://www.w3.org/1999/xlink">
<defs>
<symbol id="icon-herro" viewBox="0 0 89 32">
<path d="M0 31.311c0-0.029 0.1-0.432 0.301-1.208 0.201-0.805 0.373-1.653 0.517-2.545 0.144-0.92 0.216-1.783 0.216-2.587v-18.027c0-0.805-0.072-1.653-0.216-2.545-0.157-1.024-0.337-1.884-0.558-2.728l0.041 0.184c-0.061-0.193-0.165-0.613-0.261-1.037l-0.041-0.214v-0.173h13.315c3.045 0 5.487 0.733 7.325 2.2s2.757 3.436 2.757 5.908c0 2.359-0.775 4.227-2.327 5.607-1.523 1.352-3.591 2.171-6.205 2.459 2.615 0.661 4.553 2.171 5.817 4.528 0.46 0.891 0.992 1.955 1.595 3.192 0.604 1.236 1.063 2.184 1.379 2.845 0.345 0.633 0.776 1.337 1.293 2.113 0.516 0.747 1.077 1.424 1.68 2.027v0.173h-6.851c-0.863-0.805-2.269-3.493-4.224-8.065-1.551-3.623-3.533-5.707-5.947-6.253h-2.885v7.807c0 1.293 0.345 3.407 1.035 6.34v0.172h-7.757v-0.173zM6.723 15.483h4.524c1.924 0 3.404-0.56 4.439-1.683 1.063-1.12 1.593-2.788 1.593-5.003 0-2.156-0.503-3.824-1.507-5.003-1.007-1.207-2.443-1.811-4.311-1.811h-4.739v13.499zM7.756 17.079h0.216c-0.173 0-0.303 0.013-0.388 0.043 0.028 0 0.085-0.013 0.173-0.043zM28.485 29.973c0.259-0.776 0.488-1.496 0.689-2.156 0.2-0.661 0.387-1.524 0.56-2.588 0.2-1.064 0.301-2.041 0.301-2.933v-15.309c0-0.632-0.072-1.323-0.215-2.071-0.131-0.72-0.295-1.343-0.502-1.946l0.028 0.093c-0.248-0.758-0.438-1.272-0.64-1.781l0.080 0.228-0.301-0.907v-0.171h7.196l9.436 23.936 9.049-23.937h6.679v0.173c0 0.028-0.1 0.445-0.301 1.251-0.201 0.776-0.373 1.624-0.517 2.544-0.133 0.763-0.212 1.643-0.216 2.541l-0 0.004v18.027c0 0.804 0.072 1.667 0.216 2.587 0.144 0.892 0.316 1.74 0.517 2.545 0.2 0.776 0.301 1.179 0.301 1.207v0.173h-7.713v-0.173c0.689-2.932 1.035-5.045 1.035-6.339v-19.364l-9.74 25.876h-1.981v-0.043l-0.388 0.043-10.127-25.747c-0.028 0.317-0.044 0.686-0.044 1.059 0 0.067 0.001 0.135 0.002 0.202l-0-0.010v15.309c0 0.892 0.085 1.869 0.259 2.933 0.2 1.064 0.401 1.927 0.603 2.587 0.201 0.663 0.431 1.395 0.689 2.2 0.259 0.776 0.403 1.193 0.431 1.251v0.216h-5.816v-0.216c0.028-0.057 0.172-0.488 0.431-1.293zM67.96 4.443c2.787-2.963 6.32-4.443 10.6-4.443 2.872 0 6.248 0.661 10.125 1.984v6.943h-0.259c-3.131-4.744-6.248-7.116-9.349-7.116-2.528 0-4.653 1.367-6.377 4.097-1.696 2.703-2.543 6.053-2.543 10.049s0.876 7.373 2.628 10.133c1.781 2.733 3.893 4.097 6.333 4.097 1.581 0 3.176-0.675 4.784-2.027 1.637-1.38 3.147-3.104 4.524-5.175h0.259v7.029c-4.021 1.323-7.468 1.984-10.341 1.984-4.107 0-7.569-1.495-10.384-4.485-2.816-2.989-4.223-6.828-4.223-11.515 0-4.744 1.407-8.596 4.223-11.557z"></path>
</symbol>
<symbol id="icon-burger" viewBox="0 0 36 32">
<path d="M0 2.285c0-0.605 0.237-1.187 0.659-1.616 0.405-0.413 0.969-0.669 1.592-0.669h31.5c0.596 0 1.168 0.24 1.591 0.669 0.421 0.429 0.659 1.011 0.659 1.616 0 0.607-0.237 1.188-0.659 1.616-0.405 0.413-0.968 0.67-1.592 0.671h-31.499c-0.596 0-1.168-0.241-1.591-0.671-0.408-0.415-0.66-0.985-0.66-1.614 0-0.001 0-0.001 0-0.002v0zM0 29.715c0-0.607 0.237-1.188 0.659-1.617 0.405-0.413 0.969-0.669 1.592-0.669h31.5c0.596 0 1.168 0.241 1.591 0.669 0.421 0.429 0.659 1.011 0.659 1.617 0 0.605-0.237 1.187-0.659 1.616-0.405 0.413-0.969 0.669-1.592 0.669h-31.499c-0.596 0-1.168-0.24-1.591-0.669-0.408-0.415-0.66-0.985-0.66-1.614 0-0.001 0-0.001 0-0.002v0zM15.751 13.715c-0.597 0-1.169 0.24-1.592 0.669-0.407 0.415-0.659 0.985-0.659 1.613 0 0.001 0 0.002 0 0.003v-0c0 0.607 0.237 1.187 0.659 1.616 0.423 0.429 0.995 0.669 1.592 0.669h18c0.596 0 1.168-0.24 1.591-0.669 0.421-0.428 0.659-1.009 0.659-1.616s-0.237-1.187-0.659-1.616c-0.405-0.413-0.969-0.669-1.592-0.669h-18z"></path>
</symbol>
<symbol id="icon-close" viewBox="0 0 32 32">
<path d="M25.143 8.983l-2.126-2.126-7.017 7.017-7.017-7.017-2.126 2.126 7.017 7.017-7.017 7.017 2.126 2.126 7.017-7.017 7.017 7.017 2.126-2.126-7.017-7.017 7.017-7.017z"></path>
</symbol>
<symbol id="icon-arrow-up" viewBox="0 0 32 32">
<path d="M27.414 12.586l-10-10c-0.781-0.781-2.047-0.781-2.828 0l-10 10c-0.781 0.781-0.781 2.047 0 2.828s2.047 0.781 2.828 0l6.586-6.586v19.172c0 1.105 0.895 2 2 2s2-0.895 2-2v-19.172l6.586 6.586c0.39 0.39 0.902 0.586 1.414 0.586s1.024-0.195 1.414-0.586c0.781-0.781 0.781-2.047 0-2.828z"></path>
</symbol>
</defs>
</svg>
